<svg id="Layer_1" data-name="Layer 1" xmlns="http://www.w3.org/2000/svg" viewBox="0 0 316.81 96.71"><defs><style>.cls-1,.cls-2{fill:#42210b;}.cls-2{stroke:#42210b;stroke-miterlimit:10;stroke-width:3px;}</style></defs><path class="cls-1" d="M19.37,63.07a44.46,44.46,0,0,1-8-.68,32,32,0,0,1-6.87-2.06l.91-7.1a46.55,46.55,0,0,0,7.47,2.51,29.79,29.79,0,0,0,7,.86q4.92,0,7.32-1.72a6,6,0,0,0,2.39-5.24c0-3-1.53-5.15-4.57-6.54l-8.65-3.93A21.59,21.59,0,0,1,8.6,33.58a12.26,12.26,0,0,1-2.73-8.13q0-6.52,3.94-10.12T21,11.74a25,25,0,0,1,8.9,1.48A22.94,22.94,0,0,1,37.3,18l-4.92,5a24.77,24.77,0,0,0-5.78-3.68A14.28,14.28,0,0,0,21,18.21,8.23,8.23,0,0,0,15.38,20a6.5,6.5,0,0,0-2,5.15,5.89,5.89,0,0,0,1.31,4,11.05,11.05,0,0,0,3.83,2.72l7.31,3.45a25.49,25.49,0,0,1,8.44,5.87,12.24,12.24,0,0,1,2.88,8.4q0,6.78-4.41,10.18T19.37,63.07Z"/><path class="cls-1" d="M57.8,63.07c-3.89,0-6.91-.94-9-2.81s-3.2-4.52-3.2-7.95A10.5,10.5,0,0,1,50,43.24q4.43-3.16,12.47-3.16a39.46,39.46,0,0,1,6,.4,21.41,21.41,0,0,1,4.65,1.22l-1.54,5.06a26,26,0,0,0-4.61-.62c-1.5,0-3-.08-4.6-.08q-9.7,0-9.71,5.9a4.6,4.6,0,0,0,1.67,3.8A7.42,7.42,0,0,0,59,57.1a12.67,12.67,0,0,0,5.82-1.2,8.6,8.6,0,0,0,3.5-3.06A7.19,7.19,0,0,0,69.47,49V44.93l2.18,9.56h-3l1.19-1.12a9.34,9.34,0,0,1-1.49,5.4A9,9,0,0,1,64.2,62,17.47,17.47,0,0,1,57.8,63.07ZM71,62.72l-.5-11-1-3.09V39a6.08,6.08,0,0,0-2.62-5.46c-1.75-1.16-4.34-1.79-7.79-1.88l-8.93-.25.71-6.61,7.52.11q9.24.13,13.73,4t4.48,11.23V55.62l6.33.77v6Z"/><path class="cls-1" d="M90.28,78.54V25.1H97l.7,7.88V78.54Zm18-15.47a11.15,11.15,0,0,1-6.91-2,7.43,7.43,0,0,1-3-5.48H95.2L97.73,45c0,3.85.76,6.76,2.27,8.76a8.9,8.9,0,0,0,13.48-.22q2.33-3.19,2.32-9.45,0-6.62-2.32-10a7.73,7.73,0,0,0-6.82-3.37,7.82,7.82,0,0,0-6.66,3q-2.27,3-2.27,8.75L95.2,31.85h2.89a7.78,7.78,0,0,1,3.18-5.48,11.66,11.66,0,0,1,7-2q7.34,0,11.11,5t3.76,14.7q0,9.34-3.76,14.17T108.32,63.07Z"/><path class="cls-1" d="M132.47,78.54V25.1h6.75l.7,7.88V78.54Zm18-15.47a11.12,11.12,0,0,1-6.9-2,7.47,7.47,0,0,1-3-5.48h-3.23L139.92,45c0,3.85.76,6.76,2.27,8.76a8.9,8.9,0,0,0,13.48-.22Q158,50.35,158,44.09q0-6.62-2.32-10a8.74,8.74,0,0,0-13.48-.38q-2.26,3-2.27,8.75l-2.53-10.62h2.88a7.83,7.83,0,0,1,3.19-5.48,11.65,11.65,0,0,1,7-2q7.35,0,11.11,5t3.77,14.7q0,9.34-3.77,14.17T150.5,63.07Z"/><ellipse class="cls-1" cx="253.95" cy="24.3" rx="3.69" ry="3.96"/><path class="cls-1" d="M250.47,32.58l24.79.08a6.81,6.81,0,0,1-6.15,4H257.84s-2.66,3.67,0,6.46,12.91-.74,12.91,3.66.41,17.6.41,17.6h-4.64l-.28-13.64s-4.09,4.84-9.42,2.64S250.47,32.58,250.47,32.58Z"/><path class="cls-1" d="M277.08,29.81V23.7h33.75v6.11Zm9.35,13.57V12.45h7.45V43.38Zm16,18.28q-8.47,0-12.25-3.51c-2.52-2.34-3.78-6.1-3.78-11.25V40.57h7.45v6q0,4.43,2.17,6.43c1.44,1.34,3.81,2,7.11,2,1.18,0,2.42-.06,3.73-.19s2.81-.3,4.5-.51l.84,6.54c-1.64.28-3.24.49-4.79.63S304.22,61.66,302.46,61.66Z"/><path class="cls-1" d="M212.69,38.91V32.8h34.45v6.11Zm11.74,22.71V27.52q0-19.33,17.65-19.33a41.47,41.47,0,0,1,7.73.7L249,15.36q-2.22-.29-3.9-.39c-1.13-.07-2.22-.1-3.27-.1q-10,0-10,12.3V61.62Z"/><rect class="cls-2" x="172.76" y="40.19" width="35.5" height="3.94"/><rect class="cls-2" x="179.96" y="33.84" width="3.88" height="17.5" rx="1.94"/><rect class="cls-2" x="176.47" y="36.03" width="3.49" height="13.56" rx="1.75"/><rect class="cls-2" x="197.44" y="33.84" width="3.88" height="17.5" rx="1.94" transform="translate(398.76 85.19) rotate(180)"/><rect class="cls-2" x="201.32" y="36.03" width="3.49" height="13.56" rx="1.75" transform="translate(406.14 85.62) rotate(-180)"/></svg>