<svg id="Layer_1" data-name="Layer 1" xmlns="http://www.w3.org/2000/svg" viewBox="0 0 848 472"><defs><style>.cls-1{fill:#c7b299;}.cls-2{fill:#603813;}</style></defs><rect class="cls-1" width="848" height="472"/><path class="cls-2" d="M204.62,226v-6.72a4.38,4.38,0,0,1,1.95-1.5,2.7,2.7,0,0,1,2.74,1.12v7.84a2.73,2.73,0,0,0,2,1.12,5.12,5.12,0,0,0,2.35-.74V214.4s1.17-3.73,3.52-3.73h26.61s2.36.75,2.76,2.24a35.34,35.34,0,0,1,.39,5.6v13s0,3-1.18,4.53a25.92,25.92,0,0,1-4.7,4.48c-1.17.74-1.17,3.36-1.17,3.36l.39,10.08s1.18,7.47,1.57,8.59,2.74,7.46,2.74,7.46,1.56,5.6,2,8.22.39,9.7.39,9.7v1.82s1.17,1.55,2.35,1.17a5.48,5.48,0,0,0,1.95-1.12l.4-6.72s-.79-7.84-1.57-10.83-3.92-10.45-4.7-16a110.4,110.4,0,0,1-.78-12.7s3.13-1.86,4.3-4.1,2.35-4.11,2.35-5.23V213.28a7.55,7.55,0,0,0-2.35-4.48,16.58,16.58,0,0,0-5.08-2.61H217.41s-3.79,1.12-4.57,1.87a8.84,8.84,0,0,0-2.35,3l-.78,2.24h-.4s-3.52-.74-5.48.38a8.29,8.29,0,0,0-3.52,4.1c-.39,1.12-.39,10.83-.39,10.83a19.16,19.16,0,0,0,1.17,4.85c.79,1.5,2.74,4.11,4.7,4.86a31,31,0,0,0,5.87,1.12l1.18.37A4.22,4.22,0,0,0,214.4,242a14.18,14.18,0,0,1,2,1.49v6.81s-.39,6.64-.78,8.5-2.35,6.72-2.74,7.84-1.57,4.86-2,6.35a36,36,0,0,0-1.17,9v7.09a2.05,2.05,0,0,0,1.95,1.5,2.88,2.88,0,0,0,2.35-1.5v-6.34a35.34,35.34,0,0,1,.39-5.6c.39-1.5,2.35-8.22,2.35-8.22s1.57-5.6,2-6.34a34.27,34.27,0,0,0,1.57-6.72c0-1.12.39-9.71.39-12.33s-.39-2.61-.39-2.61a34.45,34.45,0,0,1-4.7-4.11,5,5,0,0,0-3.53-1.49,8.81,8.81,0,0,1-4.3-1.12c-1.57-1.12-3.13-3-3.13-4.11V226"/><rect class="cls-2" x="173.3" y="218.51" width="31.32" height="10.08" rx="5.04"/><rect class="cls-2" x="247.68" y="217.76" width="31.32" height="10.08" rx="5.04"/><rect class="cls-2" x="220.67" y="217.76" width="20.36" height="4.85" rx="2.43"/><polygon class="cls-2" points="277.88 219.89 274.2 223.29 224.58 174.4 228.26 171 277.88 219.89"/><polygon class="cls-2" points="174.29 220.06 177.89 223.67 231.56 174.86 227.96 171.26 174.29 220.06"/><path class="cls-2" d="M104.1,267.81a58.75,58.75,0,0,0,28,7.38c13.52,0,21.08-6.35,21.08-15.83,0-8.75-5.87-13.91-20.54-19.23-19.15-6.79-31.39-17.07-31.39-33.68,0-19,15.88-33.28,41-33.28,12.57,0,21.75,2.67,27.79,5.73L165,196a50.23,50.23,0,0,0-23.15-5.5c-13.45,0-19.15,7.15-19.15,14,0,8.9,6.7,13.08,22.18,19,20.13,7.69,29.82,17.8,29.82,34.46,0,18.65-14.05,34.82-44,34.82-12.27,0-25-3.48-31.34-7.36Z"/><path class="cls-2" d="M294.34,176.69a183.33,183.33,0,0,1,31.84-2.38c15.29,0,26.58,2.78,34.29,9.24C367.72,189.41,372,199,372,209.93c0,11.73-3.71,21.16-10.35,27.58-8.43,8.19-21.27,12-34.81,12a59.57,59.57,0,0,1-7.62-.44v42H294.34Zm24.92,52.62a34.42,34.42,0,0,0,7.22.55c13.15,0,20.68-7.35,20.68-18.83,0-10.49-6.35-17.34-18.73-17.34a38.66,38.66,0,0,0-9.17.87Z"/><path class="cls-2" d="M387.91,176.69a183.33,183.33,0,0,1,31.84-2.38c15.28,0,26.58,2.78,34.28,9.24,7.25,5.86,11.58,15.49,11.58,26.38,0,11.73-3.71,21.16-10.35,27.58-8.43,8.19-21.27,12-34.81,12a59.57,59.57,0,0,1-7.62-.44v42H387.91Zm24.92,52.62a34.32,34.32,0,0,0,7.21.55c13.15,0,20.68-7.35,20.68-18.83,0-10.49-6.34-17.34-18.73-17.34a38.56,38.56,0,0,0-9.16.87Z"/><path class="cls-2" d="M514.82,236.61v17H473.08v-17Z"/><path class="cls-2" d="M531,175.1H595.7V196H556.13v27.54h37v20.51h-37v47H531Z"/><path class="cls-2" d="M639.9,175.1V291H614.78V175.1Z"/><path class="cls-2" d="M681.31,196.77h-28V175.1h81.55v21.67H706.43V291H681.31Z"/></svg>