<svg id="Layer_1" data-name="Layer 1" xmlns="http://www.w3.org/2000/svg" viewBox="0 0 644.73 187.09"><defs><style>.cls-1{fill:#603813;}</style></defs><path class="cls-1" d="M112.25,79V72.32a4.38,4.38,0,0,1,2-1.49A2.71,2.71,0,0,1,117,72v7.84a2.7,2.7,0,0,0,2,1.12,5.13,5.13,0,0,0,2.35-.75V67.47s1.17-3.73,3.52-3.73h26.6s2.37.74,2.76,2.24a35.34,35.34,0,0,1,.39,5.6v13s0,3-1.17,4.53a25.24,25.24,0,0,1-4.7,4.48c-1.17.75-1.17,3.37-1.17,3.37l.39,10.08s1.17,7.46,1.56,8.58,2.75,7.47,2.75,7.47,1.56,5.6,1.95,8.21.39,9.71.39,9.71v1.82s1.18,1.54,2.35,1.17a5.46,5.46,0,0,0,2-1.12l.39-6.72s-.78-7.84-1.56-10.83-3.92-10.45-4.7-16a110.4,110.4,0,0,1-.78-12.7s3.13-1.86,4.3-4.11,2.35-4.1,2.35-5.22V66.35s-.39-3-2.35-4.48a16.7,16.7,0,0,0-5.09-2.61H125.05s-3.79,1.12-4.58,1.86a9.24,9.24,0,0,0-2.35,3l-.78,2.24H117s-3.52-.75-5.48.37A8.25,8.25,0,0,0,108,70.83c-.4,1.12-.4,10.83-.4,10.83a19.33,19.33,0,0,0,1.18,4.85c.78,1.49,2.74,4.11,4.7,4.85a30,30,0,0,0,5.87,1.12l1.17.38A4.27,4.27,0,0,0,122,95.1a15,15,0,0,1,2,1.49v6.81s-.39,6.63-.79,8.5-2.34,6.72-2.74,7.84-1.56,4.85-2,6.35a35.36,35.36,0,0,0-1.18,9v7.09a2.06,2.06,0,0,0,2,1.5,2.88,2.88,0,0,0,2.35-1.5v-6.35a35.41,35.41,0,0,1,.39-5.6c.39-1.49,2.35-8.21,2.35-8.21s1.56-5.6,2-6.35a34.11,34.11,0,0,0,1.56-6.72c0-1.12.39-9.7.39-12.32s-.39-2.61-.39-2.61a35.85,35.85,0,0,1-4.7-4.11,5,5,0,0,0-3.52-1.49,8.86,8.86,0,0,1-4.31-1.12c-1.56-1.12-3.13-3-3.13-4.11V79"/><rect class="cls-1" x="80.93" y="71.58" width="31.32" height="10.08" rx="5.04"/><rect class="cls-1" x="155.32" y="70.83" width="31.32" height="10.08" rx="5.04"/><rect class="cls-1" x="128.3" y="70.83" width="20.36" height="4.85" rx="2.43"/><polygon class="cls-1" points="185.51 72.96 181.84 76.36 132.22 27.46 135.9 24.07 185.51 72.96"/><polygon class="cls-1" points="81.92 73.13 85.53 76.74 139.2 27.93 135.6 24.32 81.92 73.13"/><path class="cls-1" d="M11.73,120.87a58.68,58.68,0,0,0,28,7.39c13.51,0,21.07-6.35,21.07-15.83,0-8.75-5.86-13.91-20.54-19.23C21.13,86.4,8.9,76.13,8.9,59.52c0-19,15.88-33.29,41-33.29,12.57,0,21.75,2.68,27.79,5.73L72.65,49.05a50.09,50.09,0,0,0-23.16-5.51c-13.44,0-19.14,7.15-19.14,14,0,8.89,6.7,13.07,22.17,19C72.66,84.18,82.34,94.29,82.34,111c0,18.65-14,34.82-44,34.82-12.27,0-25-3.49-31.33-7.37Z"/><path class="cls-1" d="M202,29.76a183.33,183.33,0,0,1,31.84-2.38c15.28,0,26.58,2.78,34.28,9.23,7.25,5.87,11.58,15.49,11.58,26.39,0,11.73-3.71,21.16-10.35,27.58-8.43,8.19-21.27,12-34.81,12a61.46,61.46,0,0,1-7.62-.44v42H202ZM226.9,82.37a33.6,33.6,0,0,0,7.22.56c13.14,0,20.67-7.36,20.67-18.83,0-10.49-6.34-17.34-18.73-17.34a39.25,39.25,0,0,0-9.16.86Z"/><path class="cls-1" d="M295.55,29.76a183.12,183.12,0,0,1,31.83-2.38c15.29,0,26.58,2.78,34.29,9.23,7.25,5.87,11.58,15.49,11.58,26.39,0,11.73-3.71,21.16-10.36,27.58-8.43,8.19-21.26,12-34.81,12a61.58,61.58,0,0,1-7.62-.44v42H295.55Zm24.91,52.61a33.66,33.66,0,0,0,7.22.56c13.15,0,20.68-7.36,20.68-18.83,0-10.49-6.34-17.34-18.73-17.34a39.41,39.41,0,0,0-9.17.86Z"/><path class="cls-1" d="M422.46,89.68v17H380.71v-17Z"/><path class="cls-1" d="M438.65,28.17h64.69V49.06H463.77V76.61h37V97.12h-37v47H438.65Z"/><path class="cls-1" d="M547.54,28.17V144.09H522.41V28.17Z"/><path class="cls-1" d="M589,49.83h-28V28.17h81.55V49.83H614.07v94.26H589Z"/></svg>